<svg width="24" height="24" viewBox="0 0 24 24" fill="none" xmlns="http://www.w3.org/2000/svg">
<g id="arrow_left">
<path id="Chevron" d="M6 12.4048C6.00553 12.2111 6.04427 12.034 6.11621 11.8735C6.18815 11.7131 6.29883 11.5581 6.44824 11.4087L14.7656 3.35693C15.0036 3.11898 15.2969 3 15.6455 3C15.8779 3 16.0882 3.05534 16.2764 3.16602C16.4701 3.27669 16.6222 3.42611 16.7329 3.61426C16.8491 3.80241 16.9072 4.0127 16.9072 4.24512C16.9072 4.58822 16.7772 4.88981 16.5171 5.1499L8.99658 12.3965L16.5171 19.6514C16.7772 19.917 16.9072 20.2186 16.9072 20.5562C16.9072 20.7941 16.8491 21.0072 16.7329 21.1953C16.6222 21.3835 16.4701 21.5329 16.2764 21.6436C16.0882 21.7598 15.8779 21.8179 15.6455 21.8179C15.2969 21.8179 15.0036 21.6961 14.7656 21.4526L6.44824 13.4009C6.29329 13.2515 6.17985 13.0965 6.10791 12.936C6.03597 12.77 6 12.5929 6 12.4048Z" fill="black"/>
</g>
</svg>
