<svg width="21" height="20" viewBox="0 0 21 20" fill="none" xmlns="http://www.w3.org/2000/svg">
<g id="instagram">
<path id="Vector" d="M14.7 4.54996C14.5022 4.54996 14.3088 4.60861 14.1444 4.71849C13.9799 4.82837 13.8518 4.98455 13.7761 5.16728C13.7004 5.35 13.6806 5.55107 13.7192 5.74505C13.7578 5.93903 13.853 6.11721 13.9929 6.25707C14.1327 6.39692 14.3109 6.49216 14.5049 6.53074C14.6989 6.56933 14.8999 6.54953 15.0826 6.47384C15.2654 6.39815 15.4215 6.26998 15.5314 6.10553C15.6413 5.94108 15.7 5.74774 15.7 5.54996C15.7 5.28474 15.5946 5.03039 15.4071 4.84285C15.2195 4.65532 14.9652 4.54996 14.7 4.54996ZM18.5333 6.56663C18.5171 5.87521 18.3876 5.19113 18.15 4.54163C17.9381 3.9859 17.6083 3.48269 17.1833 3.06663C16.7706 2.63948 16.2663 2.31177 15.7083 2.10829C15.0605 1.86343 14.3757 1.73097 13.6833 1.71663C12.8 1.66663 12.5166 1.66663 10.25 1.66663C7.98329 1.66663 7.69996 1.66663 6.81663 1.71663C6.12425 1.73097 5.43941 1.86343 4.79163 2.10829C4.23469 2.31383 3.73074 2.64126 3.31663 3.06663C2.88948 3.47927 2.56177 3.98366 2.35829 4.54163C2.11343 5.18941 1.98097 5.87425 1.96663 6.56663C1.91663 7.44996 1.91663 7.73329 1.91663 9.99996C1.91663 12.2666 1.91663 12.55 1.96663 13.4333C1.98097 14.1257 2.11343 14.8105 2.35829 15.4583C2.56177 16.0163 2.88948 16.5206 3.31663 16.9333C3.73074 17.3587 4.23469 17.6861 4.79163 17.8916C5.43941 18.1365 6.12425 18.269 6.81663 18.2833C7.69996 18.3333 7.98329 18.3333 10.25 18.3333C12.5166 18.3333 12.8 18.3333 13.6833 18.2833C14.3757 18.269 15.0605 18.1365 15.7083 17.8916C16.2663 17.6881 16.7706 17.3604 17.1833 16.9333C17.6102 16.5188 17.9402 16.0151 18.15 15.4583C18.3876 14.8088 18.5171 14.1247 18.5333 13.4333C18.5333 12.55 18.5833 12.2666 18.5833 9.99996C18.5833 7.73329 18.5833 7.44996 18.5333 6.56663ZM17.0333 13.3333C17.0272 13.8623 16.9314 14.3864 16.75 14.8833C16.6169 15.246 16.4032 15.5736 16.125 15.8416C15.8547 16.117 15.5276 16.3303 15.1666 16.4666C14.6697 16.6481 14.1456 16.7439 13.6166 16.75C12.7833 16.7916 12.475 16.8 10.2833 16.8C8.09163 16.8 7.78329 16.8 6.94996 16.75C6.4007 16.7602 5.85379 16.6757 5.33329 16.5C4.98811 16.3567 4.67609 16.1439 4.41663 15.875C4.14003 15.6072 3.929 15.2793 3.79996 14.9166C3.59651 14.4126 3.48366 13.8766 3.46663 13.3333C3.46663 12.5 3.41663 12.1916 3.41663 9.99996C3.41663 7.80829 3.41663 7.49996 3.46663 6.66663C3.47036 6.12584 3.56908 5.58991 3.75829 5.08329C3.905 4.73155 4.13018 4.41801 4.41663 4.16663C4.6698 3.8801 4.9827 3.65254 5.33329 3.49996C5.84125 3.31666 6.37662 3.22086 6.91663 3.21663C7.74996 3.21663 8.05829 3.16663 10.25 3.16663C12.4416 3.16663 12.75 3.16663 13.5833 3.21663C14.1123 3.22269 14.6364 3.3185 15.1333 3.49996C15.512 3.6405 15.8519 3.869 16.125 4.16663C16.398 4.42261 16.6114 4.73557 16.75 5.08329C16.9352 5.59074 17.031 6.12644 17.0333 6.66663C17.075 7.49996 17.0833 7.80829 17.0833 9.99996C17.0833 12.1916 17.075 12.5 17.0333 13.3333ZM10.25 5.72496C9.4048 5.72661 8.57909 5.97873 7.87717 6.44947C7.17525 6.92022 6.62861 7.58846 6.30632 8.36975C5.98403 9.15105 5.90056 10.0103 6.06645 10.8391C6.23235 11.6678 6.64016 12.4287 7.23836 13.0258C7.83656 13.6228 8.5983 14.0291 9.42734 14.1934C10.2564 14.3577 11.1155 14.2725 11.8962 13.9487C12.6769 13.6249 13.344 13.077 13.8134 12.3742C14.2828 11.6713 14.5333 10.8451 14.5333 9.99996C14.5344 9.43755 14.4243 8.88046 14.2093 8.36076C13.9944 7.84105 13.6788 7.36897 13.2807 6.97167C12.8826 6.57437 12.4099 6.25969 11.8898 6.04573C11.3697 5.83178 10.8124 5.72276 10.25 5.72496ZM10.25 12.775C9.70112 12.775 9.1646 12.6122 8.70825 12.3073C8.25191 12.0024 7.89623 11.569 7.68619 11.0619C7.47616 10.5548 7.42121 9.99688 7.52828 9.45858C7.63535 8.92029 7.89965 8.42583 8.28774 8.03774C8.67583 7.64965 9.17029 7.38535 9.70858 7.27828C10.2469 7.17121 10.8048 7.22616 11.3119 7.43619C11.819 7.64623 12.2524 8.00191 12.5573 8.45825C12.8622 8.9146 13.025 9.45112 13.025 9.99996C13.025 10.3644 12.9532 10.7252 12.8137 11.0619C12.6743 11.3986 12.4699 11.7045 12.2122 11.9622C11.9545 12.2199 11.6486 12.4243 11.3119 12.5637C10.9752 12.7032 10.6144 12.775 10.25 12.775Z" fill="#1F2127"/>
</g>
</svg>
